<svg xmlns="http://www.w3.org/2000/svg" viewBox="0 0 274.06 257.09"><defs><style>.a{fill:#bab1a8;}.b,.c{fill:none;stroke-linecap:round;stroke-miterlimit:10;}.b{stroke:#5c757f;stroke-width:18px;}.c{stroke:#6c8997;stroke-width:30px;}</style></defs><title>headphones_icon</title><path class="a" d="M177.06,276.81l-7.9,1.11a15.32,15.32,0,0,0-13,17.3h0a2.18,2.18,0,0,1-1.85,2.46l-4.1.58a2.19,2.19,0,0,0-1.86,2.46l8.44,60a2.19,2.19,0,0,0,2.46,1.86l4.11-.58a2.18,2.18,0,0,1,2.46,1.85h0a15.31,15.31,0,0,0,17.3,13l7.89-1.11a15.31,15.31,0,0,0,13-17.3l-9.65-68.68A15.32,15.32,0,0,0,177.06,276.81Z" transform="translate(-119.43 -120)"/><path class="a" d="M322.11,374.84,330,376a15.33,15.33,0,0,0,17.31-13h0a2.18,2.18,0,0,1,2.46-1.85l4.1.57a2.17,2.17,0,0,0,2.46-1.85l8.44-60a2.17,2.17,0,0,0-1.85-2.46l-4.1-.58a2.18,2.18,0,0,1-1.86-2.46h0a15.33,15.33,0,0,0-13-17.31L336,275.81a15.32,15.32,0,0,0-17.3,13l-9.66,68.69A15.32,15.32,0,0,0,322.11,374.84Z" transform="translate(-119.43 -120)"/><path class="b" d="M375.18,325.88l8-43.85a129.68,129.68,0,0,0-42.32-115.37" transform="translate(-119.43 -120)"/><path class="b" d="M171.24,167.39A129.65,129.65,0,0,0,129.74,282l8,43.91" transform="translate(-119.43 -120)"/><path class="c" d="M340.87,166.66a125.42,125.42,0,0,0-59.34-29.25A131.23,131.23,0,0,0,256.46,135h0a131.93,131.93,0,0,0-25.06,2.4,125.51,125.51,0,0,0-60.16,30" transform="translate(-119.43 -120)"/></svg>